<svg width="48" height="48" viewBox="0 0 48 48" fill="none" xmlns="http://www.w3.org/2000/svg">
<g clip-path="url(#clip0_1_117)">
<g filter="url(#filter0_d_1_117)">
<path d="M24.0916 2.09952C22.5166 2.09952 21.0457 2.81671 19.7919 3.99111C18.5382 5.1658 17.465 6.80174 16.5703 8.78333C16.3828 9.19846 16.2038 9.62989 16.0326 10.0749C15.5709 10.0016 15.1073 9.94144 14.6423 9.89436C14.1013 9.84046 13.5735 9.80699 13.0607 9.79499C11.5213 9.75843 10.1144 9.91452 8.88132 10.2883C7.23732 10.7868 5.88076 11.7023 5.09326 13.0661C4.30576 14.4302 4.19138 16.0627 4.58166 17.7358C4.97213 19.4088 5.85216 21.1562 7.12107 22.9219C7.38732 23.2922 7.67176 23.6636 7.97195 24.035C7.67827 24.3975 7.3949 24.7683 7.1222 25.1468C5.8532 26.9124 4.97316 28.6598 4.58279 30.3329C4.19241 32.006 4.30688 33.6385 5.09438 35.0023C5.88188 36.3664 7.23845 37.2818 8.88245 37.7801C10.5265 38.2787 12.4799 38.3901 14.6434 38.174C15.0969 38.1287 15.5603 38.0681 16.0316 37.9939C16.1989 38.4302 16.3786 38.8617 16.5703 39.2878C17.465 41.2697 18.5381 42.9053 19.7919 44.0799C21.0456 45.2544 22.5167 45.9718 24.0916 45.9718C25.6664 45.9718 27.1375 45.2544 28.3913 44.0799C29.6449 42.9052 30.7181 41.2696 31.6128 39.2878C31.8045 38.8617 31.9842 38.4303 32.1515 37.994C32.6223 38.0681 33.0852 38.1288 33.5384 38.174C35.702 38.39 37.6554 38.2786 39.2994 37.7801C40.9435 37.2817 42.3001 36.3662 43.0876 35.0023C43.8751 33.6382 43.9895 32.0059 43.5992 30.3329C43.2087 28.6599 42.3286 26.9125 41.0598 25.1468C40.787 24.7683 40.5036 24.3975 40.2099 24.035C40.5041 23.6721 40.7878 23.301 41.0608 22.922C42.3297 21.1563 43.2098 19.4089 43.6001 17.7359C43.9905 16.0628 43.876 14.4303 43.0885 13.0662C42.301 11.7024 40.9445 10.7869 39.3005 10.2884C38.0675 9.91461 36.6605 9.75852 35.1213 9.79499C34.6081 9.80699 34.0802 9.84046 33.5394 9.89436C33.0856 9.93974 32.6218 10.0006 32.1503 10.0748C31.9831 9.63937 31.8038 9.20871 31.6124 8.78333C30.7178 6.80146 29.6446 5.16552 28.3909 3.99102C27.1372 2.81652 25.666 2.09943 24.0912 2.09943L24.0916 2.09952ZM24.0916 3.85143C25.1421 3.85143 26.1721 4.31296 27.1934 5.26986C28.2146 6.22658 29.19 7.67483 30.0159 9.50427C30.1503 9.80276 30.278 10.1042 30.399 10.4083C28.3912 10.8547 26.2646 11.5397 24.091 12.4549C21.9179 11.5399 19.7917 10.8551 17.7842 10.4087C17.9081 10.0984 18.0354 9.79593 18.1673 9.50418C18.9932 7.67464 19.9686 6.22639 20.9899 5.26949C22.0112 4.31277 23.0411 3.85124 24.0918 3.85124L24.0916 3.85143ZM12.505 11.5443C12.6742 11.5426 12.846 11.5437 13.0205 11.5476C13.4855 11.558 13.9689 11.588 14.4683 11.6379C14.7876 11.6698 15.1139 11.7106 15.4455 11.7587C14.8281 13.7206 14.358 15.9045 14.0634 18.2443C12.1839 19.6693 10.5274 21.1687 9.13688 22.6846C8.93338 22.4272 8.73561 22.1653 8.54373 21.8991C7.37232 20.2692 6.60591 18.7004 6.28782 17.3375C5.96982 15.9745 6.08532 14.8519 6.61051 13.9421C7.1357 13.0324 8.05051 12.3711 9.38963 11.9651C10.2685 11.6986 11.3209 11.555 12.5049 11.5442L12.505 11.5443ZM35.677 11.5443C36.8611 11.555 37.9134 11.6987 38.7924 11.9652C40.1317 12.3711 41.0461 13.0324 41.5714 13.9421C42.0966 14.8519 42.2122 15.9746 41.8942 17.3375C41.5764 18.7003 40.8095 20.2692 39.6383 21.8991C39.4464 22.1653 39.2487 22.4273 39.0453 22.6848C37.655 21.1691 35.9989 19.67 34.1199 18.2452C33.8256 15.905 33.3549 13.7209 32.7375 11.7587C33.0687 11.7106 33.3947 11.6696 33.7137 11.6379C34.195 11.5892 34.678 11.559 35.1616 11.5476C35.3334 11.5436 35.5052 11.5425 35.677 11.5441V11.5443ZM30.997 12.073C31.463 13.5203 31.8488 15.1173 32.1367 16.8261C31.2066 16.1979 30.2545 15.6026 29.2824 15.0416C28.3109 14.4805 27.32 13.9538 26.3114 13.4626C27.9352 12.8574 29.5108 12.3932 30.997 12.0732V12.073ZM17.1861 12.0733C18.672 12.3934 20.2475 12.8576 21.8708 13.4627C20.8622 13.9539 19.8713 14.4805 18.8998 15.0416C17.9281 15.6024 16.9764 16.1973 16.0466 16.8251C16.3344 15.1167 16.7201 13.5201 17.1861 12.0732V12.0733ZM24.091 14.3664C25.5167 14.9953 26.9638 15.7262 28.4064 16.559C29.8494 17.3923 31.2067 18.2803 32.4643 19.2009C32.6327 20.7503 32.7233 22.3695 32.7233 24.0356C32.7233 25.7008 32.633 27.3193 32.4647 28.868C31.207 29.7885 29.85 30.6763 28.4074 31.5094C26.9646 32.3423 25.5171 33.0735 24.0911 33.7024C22.665 33.0735 21.2175 32.3423 19.7747 31.5094C18.3324 30.6766 16.9759 29.789 15.7187 28.869C15.5504 27.32 15.4599 25.7012 15.4599 24.0355C15.4599 22.3691 15.5504 20.7498 15.7189 19.2002C16.9764 18.2798 18.3331 17.3919 19.7757 16.559C21.2184 15.7263 22.6655 14.9953 24.091 14.3666V14.3664ZM24.2095 17.0023L19.1937 20.0976L24.2095 23.1933L29.2254 20.0976L24.2095 17.0022V17.0023ZM13.8258 20.6711C13.747 21.7908 13.7077 22.9129 13.7079 24.0353C13.7079 25.1789 13.7483 26.3015 13.8259 27.3976C12.4899 26.2941 11.3 25.1616 10.2796 24.0345C11.3 22.9074 12.4899 21.7747 13.8259 20.6711H13.8258ZM34.3575 20.672C35.6928 21.7755 36.8825 22.9077 37.9025 24.0346C36.8825 25.1615 35.6928 26.2937 34.3575 27.3968C34.4363 26.2781 34.4755 25.1569 34.4753 24.0354C34.4753 22.8913 34.4349 21.7685 34.3574 20.672H34.3575ZM18.0638 21.459V27.5713L23.3316 30.8223V24.7102L18.0638 21.459ZM30.3504 21.4622L25.0839 24.7125V30.8216L30.3505 27.5713V21.4622H30.3504ZM9.1367 25.3847C10.5274 26.9006 12.1838 28.3997 14.0631 29.8247C14.3574 32.1642 14.8277 34.3479 15.4449 36.3098C15.114 36.3576 14.7881 36.3986 14.4694 36.4305C12.4721 36.6299 10.73 36.5092 9.39076 36.1033C8.05145 35.6974 7.13701 35.0359 6.61173 34.1261C6.08654 33.2163 5.97095 32.0936 6.28895 30.7308C6.60695 29.3679 7.37345 27.799 8.54485 26.1691C8.73633 25.9033 8.9337 25.6417 9.13679 25.3847H9.1367ZM39.0452 25.385C39.2521 25.6475 39.4502 25.909 39.637 26.1691C40.8084 27.7989 41.5749 29.3678 41.8929 30.7307C42.2109 32.0935 42.0955 33.2162 41.5704 34.126C41.045 35.0358 40.1304 35.6973 38.791 36.1032C37.4519 36.5091 35.71 36.6298 33.7128 36.4304C33.3871 36.3973 33.0622 36.3572 32.7383 36.3099C33.3556 34.3475 33.8258 32.1634 34.1201 29.8234C35.9989 28.3987 37.6551 26.9 39.0453 25.3848L39.0452 25.385ZM32.137 31.2427C31.8492 32.9514 31.4635 34.5484 30.9976 35.9956C29.5113 35.6756 27.9354 35.2111 26.3116 34.606C27.3205 34.1146 28.3117 33.5878 29.2835 33.0265C30.2554 32.4656 31.2072 31.8707 32.1372 31.2427H32.137ZM16.0463 31.2437C16.9757 31.8713 17.9271 32.466 18.8985 33.0265C19.8703 33.5877 20.8615 34.1146 21.8704 34.606C20.247 35.211 18.6716 35.6754 17.1854 35.9954C16.7195 34.5485 16.3342 32.9519 16.0464 31.2437H16.0463ZM24.1434 31.3234L24.2072 31.3627L24.2707 31.3234H24.1435H24.1434ZM24.0909 35.614C26.265 36.529 28.3916 37.2139 30.3998 37.6602C30.2785 37.9652 30.1506 38.2675 30.0159 38.5668C29.19 40.3961 28.2146 41.8443 27.1933 42.8012C26.1721 43.758 25.1421 44.2196 24.0916 44.2196C23.041 44.2196 22.011 43.758 20.9898 42.8012C19.9686 41.8444 18.9932 40.3961 18.1673 38.5667C18.0327 38.2673 17.9047 37.9651 17.7834 37.6601C19.7911 37.2137 21.9175 36.5289 24.0911 35.614H24.0909Z" fill="#5E8B7E"/>
</g>
</g>
<defs>
<filter id="filter0_d_1_117" x="0.364197" y="2.09943" width="49.4535" height="53.8724" filterUnits="userSpaceOnUse" color-interpolation-filters="sRGB">
<feFlood flood-opacity="0" result="BackgroundImageFix"/>
<feColorMatrix in="SourceAlpha" type="matrix" values="0 0 0 0 0 0 0 0 0 0 0 0 0 0 0 0 0 0 127 0" result="hardAlpha"/>
<feOffset dx="1" dy="5"/>
<feGaussianBlur stdDeviation="2.5"/>
<feComposite in2="hardAlpha" operator="out"/>
<feColorMatrix type="matrix" values="0 0 0 0 0.368627 0 0 0 0 0.545098 0 0 0 0 0.494118 0 0 0 0.2 0"/>
<feBlend mode="normal" in2="BackgroundImageFix" result="effect1_dropShadow_1_117"/>
<feBlend mode="normal" in="SourceGraphic" in2="effect1_dropShadow_1_117" result="shape"/>
</filter>
<clipPath id="clip0_1_117">
<rect width="48" height="48" fill="white"/>
</clipPath>
</defs>
</svg>
