<svg width="48" height="48" viewBox="0 0 48 48" fill="none" xmlns="http://www.w3.org/2000/svg">
<g clip-path="url(#clip0_1_107)">
<g filter="url(#filter0_d_1_107)">
<path fill-rule="evenodd" clip-rule="evenodd" d="M28.408 10.427C26.9305 10.6518 25.4605 10.9229 24 11.24C22.5395 10.9229 21.0695 10.6518 19.592 10.427C20.837 10.917 22.102 11.504 23.437 12.149C23.6057 12.2307 23.748 12.3583 23.8476 12.5171C23.9471 12.6759 24 12.8596 24 13.047C24 12.664 24.218 12.315 24.563 12.149C25.898 11.504 27.163 10.916 28.408 10.427ZM24 35.401C24 35.979 23.527 36.401 23 36.408V36.605C16.731 35.544 12.302 35.477 6 36.583V13.033C6.66389 12.881 7.33068 12.742 8 12.616V10.583C6.974 10.767 5.9 10.995 4.757 11.271C4.54082 11.3235 4.3486 11.4473 4.21128 11.6223C4.07397 11.7974 3.99955 12.0135 4 12.236V37.775C4 38.408 4.583 38.88 5.204 38.762C12.28 37.412 16.729 37.492 23.808 38.777C23.9349 38.8003 24.0651 38.8003 24.192 38.777C31.271 37.492 35.72 37.412 42.796 38.762C42.9419 38.7902 43.0923 38.7859 43.2363 38.7495C43.3804 38.713 43.5147 38.6452 43.6296 38.551C43.7445 38.4568 43.8373 38.3384 43.9013 38.2043C43.9653 38.0702 43.999 37.9236 44 37.775V12.237C44.0007 12.0144 43.9264 11.798 43.789 11.6227C43.6517 11.4475 43.4594 11.3236 43.243 11.271C42.1691 11.0096 41.0876 10.7802 40 10.583V12.616C40.644 12.736 41.308 12.876 42 13.033V36.583C35.698 35.477 31.269 35.543 25 36.605V36.408C24.473 36.4 24 35.978 24 35.401Z" fill="#5E8B7E"/>
<path fill-rule="evenodd" clip-rule="evenodd" d="M9 10.507V33.055C9.00168 33.0582 9.00407 33.0609 9.007 33.063C9.01433 33.0689 9.02288 33.0732 9.03205 33.0754C9.04121 33.0777 9.05075 33.0779 9.06 33.076C14.4 32.096 18.413 33.296 22.975 35.406C22.9776 35.407 22.9803 35.4077 22.983 35.408H22.985C22.9893 35.4076 22.9934 35.4063 22.997 35.404C22.9981 35.4034 22.9991 35.4028 23 35.402V13.048C18.02 10.644 14.266 9.16799 9 10.507ZM8.474 8.57699C14.493 7.03599 18.821 8.809 23.872 11.248C24.2102 11.4116 24.4955 11.6673 24.695 11.9857C24.8946 12.3041 25.0003 12.6723 25 13.048V35.4C25 36.887 23.453 37.828 22.136 37.22C17.756 35.195 14.186 34.168 9.421 35.043C8.211 35.266 7 34.364 7 33.055V10.492C7 9.61199 7.583 8.80499 8.474 8.57699Z" fill="#5E8B7E"/>
<path fill-rule="evenodd" clip-rule="evenodd" d="M39 10.507V33.055C38.9981 33.0584 38.9954 33.0612 38.992 33.063C38.9848 33.0688 38.9764 33.073 38.9674 33.0752C38.9584 33.0774 38.9491 33.0777 38.94 33.076C33.6 32.096 29.588 33.296 25.025 35.406C25.0224 35.407 25.0197 35.4077 25.017 35.408H25.015C25.0107 35.4076 25.0066 35.4063 25.003 35.404L25 35.4V13.047C29.98 10.643 33.734 9.16699 39 10.507ZM39.526 8.57699C33.507 7.03599 29.179 8.809 24.128 11.248C23.7899 11.4118 23.5048 11.6675 23.3053 11.9859C23.1058 12.3042 23 12.6723 23 13.048V35.402C23 36.889 24.547 37.83 25.864 37.221C30.244 35.196 33.814 34.169 38.579 35.044C39.789 35.266 41 34.365 41 33.055V10.492C41.0019 10.0544 40.858 9.62868 40.5911 9.28193C40.3242 8.93518 39.9495 8.68716 39.526 8.57699ZM11.01 29.003C14.68 28.965 16.727 29.335 20.622 30.926L21.378 29.074C17.251 27.389 14.94 26.962 10.99 27.003L11.01 29.003ZM11.01 25.003C14.68 24.965 16.727 25.335 20.622 26.926L21.378 25.074C17.251 23.389 14.94 22.962 10.99 23.003L11.01 25.003ZM11.01 21.003C14.68 20.965 16.727 21.335 20.622 22.926L21.378 21.074C17.251 19.389 14.94 18.962 10.99 19.003L11.01 21.003ZM13.5 13V16H11.5V13H13.5ZM17 14V17H15V14H17ZM20.5 15V18H18.5V15H20.5Z" fill="#5E8B7E"/>
<path fill-rule="evenodd" clip-rule="evenodd" d="M36.99 29.003C33.32 28.965 31.273 29.335 27.378 30.926L26.622 29.074C30.749 27.389 33.06 26.962 37.01 27.003L36.99 29.003ZM36.99 25.003C33.32 24.965 31.273 25.335 27.378 26.926L26.622 25.074C30.749 23.389 33.06 22.962 37.01 23.003L36.99 25.003ZM36.99 21.003C33.32 20.965 31.273 21.335 27.378 22.926L26.622 21.074C30.749 19.389 33.06 18.962 37.01 19.003L36.99 21.003ZM34.5 13V16H36.5V13H34.5ZM31 14V17H33V14H31ZM27.5 15V18H29.5V15H27.5Z" fill="#5E8B7E"/>
</g>
</g>
<defs>
<filter id="filter0_d_1_107" x="0" y="8.00055" width="50" height="40.7939" filterUnits="userSpaceOnUse" color-interpolation-filters="sRGB">
<feFlood flood-opacity="0" result="BackgroundImageFix"/>
<feColorMatrix in="SourceAlpha" type="matrix" values="0 0 0 0 0 0 0 0 0 0 0 0 0 0 0 0 0 0 127 0" result="hardAlpha"/>
<feOffset dx="1" dy="5"/>
<feGaussianBlur stdDeviation="2.5"/>
<feComposite in2="hardAlpha" operator="out"/>
<feColorMatrix type="matrix" values="0 0 0 0 0.368627 0 0 0 0 0.545098 0 0 0 0 0.494118 0 0 0 0.2 0"/>
<feBlend mode="normal" in2="BackgroundImageFix" result="effect1_dropShadow_1_107"/>
<feBlend mode="normal" in="SourceGraphic" in2="effect1_dropShadow_1_107" result="shape"/>
</filter>
<clipPath id="clip0_1_107">
<rect width="48" height="48" fill="white"/>
</clipPath>
</defs>
</svg>
