<svg width="48" height="51" viewBox="0 0 48 51" fill="none" xmlns="http://www.w3.org/2000/svg">
<g clip-path="url(#clip0_1_24)">
<path d="M13.5 12C14.3284 12 15 11.3284 15 10.5C15 9.67157 14.3284 9 13.5 9C12.6716 9 12 9.67157 12 10.5C12 11.3284 12.6716 12 13.5 12Z" fill="#5E8B7E"/>
<g filter="url(#filter0_d_1_24)">
<path d="M38.1428 31.8823V26.5619C38.1428 25.8802 37.8719 25.2265 37.3897 24.7445C36.9075 24.2624 36.2534 23.9917 35.5714 23.9917H25.2857V18.8512H36.8571C37.5391 18.8512 38.1932 18.5804 38.6754 18.0984C39.1576 17.6164 39.4286 16.9626 39.4286 16.2809V8.57024C39.4286 7.88857 39.1576 7.23482 38.6754 6.7528C38.1932 6.27079 37.5391 6 36.8571 6H11.1429C10.4609 6 9.80683 6.27079 9.32459 6.7528C8.84236 7.23482 8.57144 7.88857 8.57144 8.57024V16.2809C8.57144 16.9626 8.84236 17.6164 9.32459 18.0984C9.80683 18.5804 10.4609 18.8512 11.1429 18.8512H22.7143V23.9917H12.4286C11.7466 23.9917 11.0925 24.2624 10.6103 24.7445C10.1281 25.2265 9.85715 25.8802 9.85715 26.5619V31.8823C8.64516 32.1951 7.58891 32.9389 6.88638 33.9745C6.18385 35.01 5.88328 36.2661 6.041 37.5072C6.19873 38.7484 6.80392 39.8895 7.74314 40.7166C8.68236 41.5437 9.89113 42 11.1429 42C12.3946 42 13.6034 41.5437 14.5426 40.7166C15.4818 39.8895 16.087 38.7484 16.2447 37.5072C16.4025 36.2661 16.1019 35.01 15.3994 33.9745C14.6968 32.9389 13.6406 32.1951 12.4286 31.8823V26.5619H22.7143V31.7024H18.8571V41.9833H29.1429V31.7024H25.2857V26.5619H35.5714V31.8823C34.3594 32.1951 33.3032 32.9389 32.6006 33.9745C31.8981 35.01 31.5975 36.2661 31.7553 37.5072C31.913 38.7484 32.5182 39.8895 33.4574 40.7166C34.3966 41.5437 35.6054 42 36.8571 42C38.1089 42 39.3176 41.5437 40.2569 40.7166C41.1961 39.8895 41.8013 38.7484 41.959 37.5072C42.1167 36.2661 41.8162 35.01 41.1136 33.9745C40.4111 32.9389 39.3548 32.1951 38.1428 31.8823ZM13.7143 36.8428C13.7143 37.3512 13.5635 37.8481 13.2809 38.2708C12.9984 38.6935 12.5968 39.0229 12.1269 39.2174C11.657 39.412 11.14 39.4629 10.6412 39.3637C10.1424 39.2645 9.68421 39.0197 9.32459 38.6603C8.96497 38.3008 8.72007 37.8428 8.62085 37.3443C8.52163 36.8457 8.57255 36.3289 8.76718 35.8593C8.9618 35.3896 9.29139 34.9882 9.71426 34.7058C10.1371 34.4233 10.6343 34.2726 11.1429 34.2726C11.8249 34.2726 12.4789 34.5434 12.9611 35.0254C13.4434 35.5074 13.7143 36.1612 13.7143 36.8428ZM26.5714 34.2726V39.4131H21.4286V34.2726H26.5714ZM11.1429 16.2809V8.57024H36.8571V16.2809H11.1429ZM36.8571 39.4131C36.3486 39.4131 35.8514 39.2623 35.4285 38.9799C35.0057 38.6975 34.6761 38.2961 34.4814 37.8264C34.2868 37.3568 34.2359 36.84 34.3351 36.3414C34.4343 35.8428 34.6792 35.3849 35.0389 35.0254C35.3985 34.666 35.8567 34.4212 36.3555 34.322C36.8543 34.2228 37.3713 34.2737 37.8412 34.4683C38.311 34.6628 38.7126 34.9922 38.9952 35.4149C39.2777 35.8376 39.4286 36.3345 39.4286 36.8428C39.4286 37.5245 39.1576 38.1783 38.6754 38.6603C38.1932 39.1423 37.5391 39.4131 36.8571 39.4131Z" fill="#5E8B7E"/>
</g>
</g>
<defs>
<filter id="filter0_d_1_24" x="2" y="6" width="46" height="46" filterUnits="userSpaceOnUse" color-interpolation-filters="sRGB">
<feFlood flood-opacity="0" result="BackgroundImageFix"/>
<feColorMatrix in="SourceAlpha" type="matrix" values="0 0 0 0 0 0 0 0 0 0 0 0 0 0 0 0 0 0 127 0" result="hardAlpha"/>
<feOffset dx="1" dy="5"/>
<feGaussianBlur stdDeviation="2.5"/>
<feComposite in2="hardAlpha" operator="out"/>
<feColorMatrix type="matrix" values="0 0 0 0 0.368627 0 0 0 0 0.545098 0 0 0 0 0.494118 0 0 0 0.2 0"/>
<feBlend mode="normal" in2="BackgroundImageFix" result="effect1_dropShadow_1_24"/>
<feBlend mode="normal" in="SourceGraphic" in2="effect1_dropShadow_1_24" result="shape"/>
</filter>
<clipPath id="clip0_1_24">
<rect width="48" height="51" fill="white"/>
</clipPath>
</defs>
</svg>
